<?xml version="1.0" encoding="UTF-8" standalone="no"?><!DOCTYPE svg PUBLIC "-//W3C//DTD SVG 1.1//EN" "http://www.w3.org/Graphics/SVG/1.1/DTD/svg11.dtd"><!-- Generated by graphviz version 2.40.1 (20161225.0304)
 --><!-- Title: G Pages: 1 --><svg xmlns="http://www.w3.org/2000/svg" xmlns:xlink="http://www.w3.org/1999/xlink" width="264pt" height="146pt" viewBox="0.00 0.00 264.03 145.82">
<g id="graph0" class="graph" transform="scale(1 1) rotate(0) translate(4 141.8234)">
<title>G</title>
<polygon fill="#ffffff" stroke="transparent" points="-4,4 -4,-141.8234 260.0269,-141.8234 260.0269,4 -4,4"/>
<!-- Type -->
<g id="node1" class="node">
<title>Type</title>
<ellipse fill="none" stroke="#000000" cx="126.7988" cy="-112.3675" rx="81.3634" ry="25.4118"/>
<text text-anchor="start" x="112.4152" y="-114.7675" font-family="Times,serif" font-size="14.00" fill="#000000">Type</text>
<text text-anchor="start" x="77.3948" y="-100.7675" font-family="Times,serif" font-size="14.00" fill="#000000">        </text>
<text text-anchor="start" x="105.3948" y="-100.7675" font-family="Times,serif" font-size="10.00" fill="#000000">*ast.SelectorExpr</text>
</g>
<!-- X -->
<g id="node2" class="node">
<title>X</title>
<ellipse fill="none" stroke="#000000" cx="58.7988" cy="-25.4558" rx="58.5982" ry="25.4118"/>
<text text-anchor="start" x="39.3535" y="-27.8558" font-family="Times,serif" font-size="14.00" fill="#000000">mypkg</text>
<text text-anchor="start" x="25.2218" y="-13.8558" font-family="Times,serif" font-size="14.00" fill="#000000">        </text>
<text text-anchor="start" x="53.2218" y="-13.8558" font-family="Times,serif" font-size="10.00" fill="#000000">*ast.Ident</text>
</g>
<!-- Type&#45;&gt;X -->
<g id="edge1" class="edge">
<title>Type-&gt;X</title>
<path fill="none" stroke="#000000" d="M107.1303,-87.2291C99.8983,-77.9857 91.6074,-67.389 83.958,-57.6122"/>
<polygon fill="#000000" stroke="#000000" points="86.6395,-55.3594 77.7208,-49.6403 81.1264,-59.6729 86.6395,-55.3594"/>
</g>
<!-- Sel -->
<g id="node3" class="node">
<title>Sel</title>
<ellipse fill="none" stroke="#000000" cx="195.7988" cy="-25.4558" rx="60.4571" ry="25.4118"/>
<text text-anchor="start" x="161.2111" y="-27.8558" font-family="Times,serif" font-size="14.00" fill="#000000">MyInterface</text>
<text text-anchor="start" x="162.2218" y="-13.8558" font-family="Times,serif" font-size="14.00" fill="#000000">        </text>
<text text-anchor="start" x="190.2218" y="-13.8558" font-family="Times,serif" font-size="10.00" fill="#000000">*ast.Ident</text>
</g>
<!-- Type&#45;&gt;Sel -->
<g id="edge2" class="edge">
<title>Type-&gt;Sel</title>
<path fill="none" stroke="#000000" d="M146.7564,-87.2291C154.0948,-77.9857 162.5077,-67.389 170.2695,-57.6122"/>
<polygon fill="#000000" stroke="#000000" points="173.1218,-59.6485 176.5985,-49.6403 167.6394,-55.296 173.1218,-59.6485"/>
</g>
</g>
</svg>